Coordinates
version=1
nRows=12
nColumns=24
inDegrees=yes

Units are S.I. units (second, meters, Newtons, ...)
Angles are in degrees.

endheader
time	pelvis_tilt	pelvis_list	pelvis_rotation	pelvis_tx	pelvis_ty	pelvis_tz	hip_flexion_r	hip_adduction_r	hip_rotation_r	knee_angle_r	ankle_angle_r	subtalar_angle_r	mtp_angle_r	hip_flexion_l	hip_adduction_l	hip_rotation_l	knee_angle_l	ankle_angle_l	subtalar_angle_l	mtp_angle_l	lumbar_extension	lumbar_bending	lumbar_rotation
      3.95000000	    -19.58773380	     -0.39650128	      7.45711373	     -1.87460034	     -0.03742025	     -0.27495877	     46.66982587	     -0.87496907	      3.48816556	     -9.57497412	     -2.90443360	     -7.01044469	     11.02138705	     -0.41546416	      3.00805028	     14.65347578	    -13.71393794	     24.21824034	     24.04589882	    -63.12597136	     12.98676361	     -2.55150880	     -9.90058421
      3.95500000	    -19.54213403	     -0.57563748	      7.44073173	     -1.86595127	     -0.03876152	     -0.27444713	     46.81549079	     -0.62755661	      3.31005340	    -10.61250546	     -3.64741512	     -7.40610553	     11.62651674	     -0.63852821	      2.71968427	     14.37880845	    -14.44667120	     23.94433193	     24.60105530	    -62.62967472	     13.08005221	     -2.37068392	     -9.97539539
      3.96000000	    -19.49610422	     -0.73417134	      7.41360185	     -1.85733029	     -0.04002621	     -0.27389659	     46.97564816	     -0.38501026	      3.09776698	    -11.70460679	     -4.64528915	     -7.80809035	     12.09356497	     -0.82110123	      2.45076416	     14.06479891	    -15.23714308	     23.59508150	     25.20101482	    -62.22361312	     13.16018009	     -2.20957769	    -10.01527048
      3.96500000	    -19.42336165	     -0.85524358	      7.34298207	     -1.84865092	     -0.04121655	     -0.27335367	     47.10728066	     -0.15079681	      2.87909972	    -12.73037461	     -6.26159535	     -8.59916315	     14.33547595	     -1.04495647	      2.23115032	     13.72718543	    -15.99983366	     22.81389868	     25.69762345	    -60.22777006	     13.20988459	     -2.06235697	    -10.03745693
      3.97000000	    -19.44074285	     -1.05333977	      7.28687783	     -1.83997381	     -0.04240270	     -0.27274328	     47.38879352	      0.14051729	      2.57442777	    -13.97299668	     -7.53968592	     -8.92493723	     14.16217939	     -1.03407514	      1.91725015	     13.13016316	    -16.97712527	     22.35030594	     26.44058482	    -60.02952913	     13.36494883	     -1.86057299	    -10.06185736
      3.97500000	    -19.45541809	     -1.25750864	      7.16821729	     -1.83124965	     -0.04350013	     -0.27204032	     47.68301581	      0.49284734	      2.35577558	    -15.24625059	     -8.97170496	     -9.39117279	     13.91753833	     -1.00237487	      1.58163275	     12.42640357	    -17.97740836	     21.74215847	     27.19915269	    -59.71262141	     13.51984660	     -1.63399237	    -10.02425019
      3.98000000	    -19.53301913	     -1.49971307	      7.02581340	     -1.82247261	     -0.04451744	     -0.27137603	     48.04057606	      0.87933099	      2.16362982	    -16.52398155	    -10.40911586	     -9.81394889	     13.53011547	     -0.85217054	      1.20757023	     11.65681445	    -19.03640561	     20.98216106	     27.94782927	    -59.39054484	     13.75624246	     -1.36051770	     -9.94861122
      3.98500000	    -19.60965883	     -1.70727684	      6.86456811	     -1.81379388	     -0.04542994	     -0.27062315	     48.41353268	      1.27149506	      2.12318531	    -17.85297175	    -11.71031803	    -10.28675216	     12.92271605	     -0.62837575	      0.84301014	     10.74631538	    -20.18557364	     20.06173279	     28.80759715	    -58.97320556	     13.96542484	     -1.12602225	     -9.83456871
      3.99000000	    -19.58689520	     -1.98389568	      6.65644725	     -1.80500206	     -0.04609587	     -0.26977961	     48.70919338	      1.80548128	      2.13898214	    -19.44322887	    -11.82497958	    -10.01630481	      8.66808884	     -0.51003469	      0.36449497	      9.80299615	    -21.25875306	     18.10469407	     29.84093619	    -53.52425639	     14.08222958	     -0.79568295	     -9.68297701
      3.99500000	    -19.73922870	     -2.20267956	      6.50428482	     -1.79638544	     -0.04681229	     -0.26903428	     49.13544573	      2.23615613	      2.28499960	    -20.81737044	    -12.49338215	    -10.45247729	      7.12235105	     -0.12207337	     -0.02712033	      8.94152972	    -22.35954586	     15.42734814	     30.87606012	    -45.37501006	     14.36197330	     -0.56097827	     -9.59096065
      4.00000000	    -19.85969181	     -2.42705718	      6.28823805	     -1.78769376	     -0.04742935	     -0.26821358	     49.47439931	      2.73836438	      2.52813186	    -22.09154612	    -13.08021519	    -11.02518894	      6.69040632	      0.32325718	     -0.47293175	      7.88068795	    -23.67562455	     13.98264774	     31.75855238	    -45.18045087	     14.61393475	     -0.29738207	     -9.44229863
      4.00500000	    -19.94667673	     -2.71716986	      6.20279231	     -1.77908062	     -0.04780861	     -0.26746633	     49.76502503	      3.24035342	      2.62740258	    -23.52458801	    -12.53169188	    -11.07714215	      3.19955808	      0.73692227	     -1.01381587	      6.93653018	    -24.58105044	      9.35523955	     32.99128238	    -29.33436239	     14.82142648	     -0.01425533	     -9.41377902
